# xmcd
# Copyright (C) 1995-1998 Ti Kan
#
# Track frame offsets:
#       150
#       9920
#       22137
#       35630
#       46856
#       58504
#       76366
#       91966
#       103254
#       112051
#       129042
#       140231
#       148953
#       152788
#       162782
#
# Disc length: 2769 seconds
#
# Revision: 0
# Processed by: cddbd v1.5.2PL0 Copyright (c) Steve Scherf et al.
# Submitted via: CD-Import v1.0
#
DISCID=cb0acf0f
DTITLE=Urban Jr - E-B.o.m.b.
DYEAR=08
DGENRE=
TTITLE0=E-B.o.m.b.
TTITLE1=See You In Hell
TTITLE2=Ah Ah Ah Ah
TTITLE3=Shut Up And Dance
TTITLE4=Choo Choo Train
TTITLE5=Ready Set Go
TTITLE6=Desperate Man
TTITLE7=Sweet Johnny Suicide
TTITLE8=When I'm With You
TTITLE9=Day Off
TTITLE10=Touch
TTITLE11=Oh Yeah
TTITLE12=Jesus Between Her Legs
TTITLE13=Time Is On Your Side
TTITLE14=Techno Is Dead
EXTD=
EXTT0=
EXTT1=
EXTT2=
EXTT3=
EXTT4=
EXTT5=
EXTT6=
EXTT7=
EXTT8=
EXTT9=
EXTT10=
EXTT11=
EXTT12=
EXTT13=
EXTT14=
PLAYORDER=
